# xmcd
#
# Track frame offsets:
#	150
#	5155
#	33191
#	54289
#	71046
#	85649
#	123038
#	154496
#	197037
#
# Disc length: 3107 seconds
#
# Revision: 1
# Processed by: cddbd v1.5.2PL0 Copyright (c) Steve Scherf et al.
# Submitted via: audiograbber 1.83.01
#
DISCID=6d0c2109
DTITLE=Tim Buckley - Dream Letters CD1
DYEAR=1900
DGENRE=
TTITLE0=Introduction
TTITLE1=Buzzin' fly
TTITLE2=Phantasmagoria in two
TTITLE3=Morning glory
TTITLE4=Dolphins
TTITLE5=I've been out walking
TTITLE6=The earth is broken
TTITLE7=Who do you love
TTITLE8=Pleasant street/You keep
EXTD=
EXTT0=
EXTT1=
EXTT2=
EXTT3=
EXTT4=
EXTT5=
EXTT6=
EXTT7=
EXTT8=
PLAYORDER=
